<mxfile host="65bd71144e">
    <diagram id="Gxi5HUnFIt9nx33e8f-8" name="Seite-1">
        <mxGraphModel dx="1488" dy="994" grid="1" gridSize="10" guides="1" tooltips="1" connect="1" arrows="1" fold="1" page="1" pageScale="1" pageWidth="827" pageHeight="1169" math="0" shadow="0">
            <root>
                <mxCell id="0"/>
                <mxCell id="1" parent="0"/>
                <mxCell id="3" value="&lt;b&gt;&lt;u&gt;Todos (yeil):&lt;br&gt;&lt;/u&gt;&lt;/b&gt;- Rückgabewerte anpassen (Windspeed, Feuchtigkeit, &quot;bewölkt&quot;...)&lt;br&gt;- Rendering der Werte&lt;br&gt;- ASCII Icons einbinden&lt;br&gt;- Terminal-Output farbig gestalten&amp;nbsp;" style="text;html=1;strokeColor=none;fillColor=none;align=left;verticalAlign=top;whiteSpace=wrap;rounded=0;fontSize=18;" vertex="1" parent="1">
                    <mxGeometry x="20" y="40" width="560" height="250" as="geometry"/>
                </mxCell>
            </root>
        </mxGraphModel>
    </diagram>
</mxfile>